<svg width="118" height="93" viewBox="0 0 118 93" fill="none" xmlns="http://www.w3.org/2000/svg">
<path d="M13.2794 0.991242C17.824 0.991242 21.6111 2.585 24.6409 5.7725C27.7021 8.96001 29.2328 12.8892 29.2328 17.56C29.2328 22.2308 27.7021 26.1599 24.6409 29.3474C21.6111 32.5349 17.824 34.1287 13.2794 34.1287H0.119141V0.991242H13.2794ZM13.2794 27.8799C16.1514 27.8799 18.4868 26.9331 20.2857 25.0396C22.0845 23.1144 22.984 20.6212 22.984 17.56C22.984 14.4987 22.0845 12.0213 20.2857 10.1277C18.4868 8.20258 16.1514 7.24002 13.2794 7.24002H6.65195V27.8799H13.2794Z" fill="#070707"/>
<path d="M38.7428 24.8029C39.5633 27.7695 41.7883 29.2528 45.4176 29.2528C47.753 29.2528 49.5203 28.4638 50.7196 26.8858L55.6429 29.7262C53.3075 33.103 49.8675 34.7915 45.3229 34.7915C41.4095 34.7915 38.2694 33.608 35.9024 31.241C33.5355 28.874 32.352 25.8917 32.352 22.2939C32.352 18.7277 33.5197 15.7611 35.8551 13.3941C38.1905 10.9956 41.1886 9.79634 44.8495 9.79634C48.3211 9.79634 51.1772 10.9956 53.4179 13.3941C55.6902 15.7926 56.8264 18.7592 56.8264 22.2939C56.8264 23.0829 56.7475 23.9192 56.5897 24.8029H38.7428ZM38.6481 20.069H50.7196C50.3724 18.4594 49.6466 17.2602 48.542 16.4712C47.469 15.6822 46.2382 15.2877 44.8495 15.2877C43.2084 15.2877 41.8514 15.7137 40.7784 16.5658C39.7053 17.3864 38.9952 18.5541 38.6481 20.069Z" fill="#070707"/>
<path d="M74.2498 9.79634C76.8377 9.79634 78.9679 10.6642 80.6406 12.4C82.3448 14.1358 83.1969 16.5343 83.1969 19.5956V34.1287H77.0901V20.353C77.0901 18.775 76.6641 17.5758 75.812 16.7552C74.9599 15.9031 73.8237 15.477 72.4035 15.477C70.8256 15.477 69.5632 15.9662 68.6164 16.9446C67.6696 17.9229 67.1962 19.3904 67.1962 21.3471V34.1287H61.0895V10.4591H67.1962V13.1101C68.6795 10.9009 71.0307 9.79634 74.2498 9.79634Z" fill="#070707"/>
<path d="M91.4409 7.61874C90.431 7.61874 89.5474 7.2558 88.79 6.52993C88.0641 5.7725 87.7011 4.88884 87.7011 3.87893C87.7011 2.86903 88.0641 1.98537 88.79 1.22794C89.5474 0.470511 90.431 0.0917969 91.4409 0.0917969C92.4824 0.0917969 93.3661 0.470511 94.0919 1.22794C94.8494 1.98537 95.2281 2.86903 95.2281 3.87893C95.2281 4.88884 94.8494 5.7725 94.0919 6.52993C93.3661 7.2558 92.4824 7.61874 91.4409 7.61874ZM88.4112 34.1287V10.4591H94.518V34.1287H88.4112Z" fill="#070707"/>
<path d="M105.556 17.1813C105.556 17.8124 105.966 18.3332 106.787 18.7435C107.639 19.1222 108.664 19.4693 109.864 19.7849C111.063 20.069 112.262 20.4477 113.461 20.9211C114.661 21.3629 115.671 22.1203 116.491 23.1933C117.343 24.2664 117.769 25.6076 117.769 27.2172C117.769 29.6473 116.854 31.525 115.024 32.8505C113.225 34.1445 110.968 34.7915 108.254 34.7915C103.394 34.7915 100.08 32.9137 98.3129 29.1581L103.615 26.1757C104.309 28.2271 105.856 29.2528 108.254 29.2528C110.432 29.2528 111.521 28.5742 111.521 27.2172C111.521 26.586 111.094 26.081 110.242 25.7023C109.422 25.292 108.412 24.9291 107.213 24.6135C106.013 24.2979 104.814 23.9034 103.615 23.43C102.416 22.9566 101.39 22.215 100.538 21.2051C99.7173 20.1636 99.307 18.8697 99.307 17.3233C99.307 14.9879 100.159 13.1574 101.863 11.8319C103.599 10.4749 105.745 9.79634 108.301 9.79634C110.227 9.79634 111.978 10.2382 113.556 11.1218C115.134 11.9739 116.381 13.2048 117.296 14.8143L112.089 17.6546C111.331 16.0451 110.069 15.2403 108.301 15.2403C107.512 15.2403 106.85 15.4139 106.313 15.7611C105.808 16.1082 105.556 16.5816 105.556 17.1813Z" fill="#070707"/>
<path d="M19.2915 58.9912H25.8243V92.1287H20.8537L6.65195 71.8675V92.1287H0.119141V58.9912H5.08976L19.2915 79.2051V58.9912Z" fill="#070707"/>
<path d="M51.8539 89.1937C49.4238 91.5922 46.4572 92.7915 42.9541 92.7915C39.451 92.7915 36.4844 91.5922 34.0543 89.1937C31.6558 86.7636 30.4566 83.797 30.4566 80.2939C30.4566 76.7908 31.6558 73.84 34.0543 71.4415C36.4844 69.0114 39.451 67.7963 42.9541 67.7963C46.4572 67.7963 49.4238 69.0114 51.8539 71.4415C54.284 73.84 55.499 76.7908 55.499 80.2939C55.499 83.797 54.284 86.7636 51.8539 89.1937ZM38.3622 84.9805C39.593 86.2113 41.1237 86.8267 42.9541 86.8267C44.7846 86.8267 46.3152 86.2113 47.546 84.9805C48.7768 83.7497 49.3923 82.1875 49.3923 80.2939C49.3923 78.4003 48.7768 76.8381 47.546 75.6073C46.3152 74.3765 44.7846 73.7611 42.9541 73.7611C41.1237 73.7611 39.593 74.3765 38.3622 75.6073C37.1629 76.8381 36.5633 78.4003 36.5633 80.2939C36.5633 82.1875 37.1629 83.7497 38.3622 84.9805Z" fill="#070707"/>
<path d="M74.4451 68.4591H81.1672L72.1728 92.1287H65.2139L56.2195 68.4591H62.9416L68.6697 85.0278L74.4451 68.4591Z" fill="#070707"/>
<path d="M87.1416 65.6187C86.1317 65.6187 85.248 65.2558 84.4906 64.5299C83.7647 63.7725 83.4018 62.8888 83.4018 61.8789C83.4018 60.869 83.7647 59.9854 84.4906 59.2279C85.248 58.4705 86.1317 58.0918 87.1416 58.0918C88.183 58.0918 89.0667 58.4705 89.7926 59.2279C90.55 59.9854 90.9287 60.869 90.9287 61.8789C90.9287 62.8888 90.55 63.7725 89.7926 64.5299C89.0667 65.2558 88.183 65.6187 87.1416 65.6187ZM84.1119 92.1287V68.4591H90.2186V92.1287H84.1119Z" fill="#070707"/>
<path d="M117.631 92.1287H110.53L101.915 81.3827V92.1287H95.808V58.9912H101.915V78.8737L110.057 68.4591H117.347L107.832 80.1519L117.631 92.1287Z" fill="#070707"/>
</svg>
