<svg width="16" height="63" viewBox="0 0 16 63" fill="none" xmlns="http://www.w3.org/2000/svg">
<path d="M12.2617 56.7582L8.3737 59.0142V60.6942H12.2617V62.9022H1.0617V58.4222C1.0617 57.3875 1.42437 56.5075 2.1497 55.7822C2.87503 55.0568 3.7497 54.6942 4.7737 54.6942C5.46703 54.6942 6.11237 54.8915 6.7097 55.2862C7.29637 55.6808 7.73903 56.2035 8.0377 56.8542L12.2617 54.3742V56.7582ZM3.1257 60.6942H6.4377V58.4222C6.4377 58.0062 6.2777 57.6488 5.9577 57.3502C5.62703 57.0515 5.23237 56.9022 4.7737 56.9022C4.31503 56.9022 3.9257 57.0515 3.6057 57.3502C3.2857 57.6488 3.1257 58.0062 3.1257 58.4222V60.6942Z" fill="black"/>
<path d="M12.4857 48.9762C12.4857 50.2242 12.1337 51.2482 11.4297 52.0482C10.7257 52.8482 9.7817 53.2482 8.5977 53.2482H1.0617V51.0562H8.4217C9.00837 51.0562 9.47237 50.8908 9.8137 50.5602C10.155 50.2188 10.3257 49.6908 10.3257 48.9762C10.3257 48.2615 10.155 47.7388 9.8137 47.4082C9.47237 47.0668 9.00837 46.8962 8.4217 46.8962H1.0617V44.6882H8.5977C9.7817 44.6882 10.7257 45.0882 11.4297 45.8882C12.1337 46.6882 12.4857 47.7175 12.4857 48.9762Z" fill="black"/>
<path d="M15.4617 38.699H0.741699V36.635H15.4617V38.699Z" fill="black"/>
<path d="M10.1497 28.3504V23.6304H12.2617V30.5584H1.0617V23.7104H3.1737V28.3504H5.5577V24.1104H7.6377V28.3504H10.1497Z" fill="black"/>
<path d="M1.0617 15.594V13.386H12.2617V15.066L5.4137 19.866H12.2617V22.074H1.0617V20.394L7.8937 15.594H1.0617Z" fill="black"/>
<path d="M6.2457 0.316406H7.1097C8.7097 0.316406 10.0057 0.828406 10.9977 1.85241C11.9897 2.87641 12.4857 4.19907 12.4857 5.82041C12.4857 7.54841 11.9257 8.98307 10.8057 10.1244C9.67503 11.2551 8.29903 11.8204 6.6777 11.8204C5.0457 11.8204 3.66437 11.2604 2.5337 10.1404C1.40303 9.00974 0.837699 7.61241 0.837699 5.94841C0.837699 4.90307 1.0777 3.94841 1.5577 3.08441C2.02703 2.22041 2.65637 1.54841 3.4457 1.06841L4.5337 2.95641C4.07503 3.22307 3.7017 3.62841 3.4137 4.17241C3.1257 4.70574 2.9817 5.30307 2.9817 5.96441C2.9817 7.03107 3.3337 7.91107 4.0377 8.60441C4.73103 9.28707 5.61103 9.62841 6.6777 9.62841C7.7337 9.62841 8.60837 9.28174 9.3017 8.58841C9.98437 7.88441 10.3257 6.95641 10.3257 5.80441C10.3257 4.95107 10.139 4.24707 9.7657 3.69241C9.3817 3.12707 8.85903 2.74307 8.1977 2.54041V5.93241H6.2457V0.316406Z" fill="black"/>
</svg>
