<svg xmlns="http://www.w3.org/2000/svg" width="41" height="41" fill="none">
  <mask id="a" fill="#fff">
    <path d="M34.575.643h-28.4C2.932.643.293 3.275.293 6.51v28.323c0 3.235 2.64 5.868 5.884 5.868h28.399c3.244 0 5.884-2.633 5.884-5.868V6.51c0-3.236-2.64-5.868-5.884-5.868Zm3.53 34.19a3.53 3.53 0 0 1-3.53 3.521h-28.4a3.53 3.53 0 0 1-3.53-3.52V6.51a3.53 3.53 0 0 1 3.53-3.521h28.4a3.53 3.53 0 0 1 3.53 3.52v28.324Z"/>
    <path d="M31.42 29.679h-4.312v-7.202c0-.497-.036-.988-.161-1.472-.515-1.999-2.741-1.882-3.627-.935-.445.476-.736 1.014-.748 1.679-.003.158-.012.317-.012.475v7.453h-4.304V16.313h4.301v1.793l.035.015c.03-.041.062-.082.092-.125.432-.598.927-1.13 1.585-1.488.736-.402 1.53-.536 2.356-.512.895.026 1.744.227 2.51.709.98.617 1.578 1.52 1.929 2.604.273.845.362 1.716.363 2.598.002 2.539 0 5.077 0 7.616 0 .05-.004.1-.007.157Zm-15.794.007h-4.28V16.309h4.28v13.377ZM13.67 9.656c1.347-.002 2.3.957 2.305 2.318.005 1.346-.964 2.3-2.338 2.3-1.34 0-2.297-.958-2.3-2.305-.002-1.349.968-2.31 2.332-2.313Z"/>
  </mask>
  <path fill="#070707" d="M34.575.643h-28.4C2.932.643.293 3.275.293 6.51v28.323c0 3.235 2.64 5.868 5.884 5.868h28.399c3.244 0 5.884-2.633 5.884-5.868V6.51c0-3.236-2.64-5.868-5.884-5.868Zm3.53 34.19a3.53 3.53 0 0 1-3.53 3.521h-28.4a3.53 3.53 0 0 1-3.53-3.52V6.51a3.53 3.53 0 0 1 3.53-3.521h28.4a3.53 3.53 0 0 1 3.53 3.52v28.324Z"/>
  <path fill="#070707" d="M31.42 29.679h-4.312v-7.202c0-.497-.036-.988-.161-1.472-.515-1.999-2.741-1.882-3.627-.935-.445.476-.736 1.014-.748 1.679-.003.158-.012.317-.012.475v7.453h-4.304V16.313h4.301v1.793l.035.015c.03-.041.062-.082.092-.125.432-.598.927-1.13 1.585-1.488.736-.402 1.53-.536 2.356-.512.895.026 1.744.227 2.51.709.98.617 1.578 1.52 1.929 2.604.273.845.362 1.716.363 2.598.002 2.539 0 5.077 0 7.616 0 .05-.004.1-.007.157Zm-15.794.007h-4.28V16.309h4.28v13.377ZM13.67 9.656c1.347-.002 2.3.957 2.305 2.318.005 1.346-.964 2.3-2.338 2.3-1.34 0-2.297-.958-2.3-2.305-.002-1.349.968-2.31 2.332-2.313Z"/>
  <path fill="#070707" d="M31.42 29.679v.03h.029l.001-.029-.03-.001Zm-4.312 0h-.03v.03h.03v-.03Zm0-7.202h.031-.03Zm-.161-1.472.03-.008-.03.008Zm-3.627-.935.023.021-.023-.02Zm-.748 1.679h-.03.03Zm-.012.475h.03-.03Zm0 7.453v.031h.03v-.03h-.03Zm-4.304 0h-.03v.031h.03v-.03Zm0-13.365v-.03h-.03v.03h.03Zm4.301 0h.031v-.03h-.03v.03Zm0 1.793h-.03v.02l.018.008.012-.028Zm.035.015-.012.028.022.01.014-.02-.024-.018Zm.092-.125.025.018-.025-.018Zm1.585-1.488.015.027-.015-.027Zm2.356-.512.001-.03v.03Zm2.51.709.016-.026-.016.026Zm1.929 2.604-.03.01.03-.01Zm.363 2.598h.03-.03Zm0 7.616h-.03.03Zm-15.8.164v.03h.03v-.03h-.03Zm-4.282 0h-.03v.03h.03v-.03Zm0-13.377v-.031h-.03v.03h.03Zm4.281 0h.03v-.031h-.03v.03ZM13.67 9.656v.03-.03Zm2.306 2.318h.03-.03Zm-2.338 2.3v-.03.03Zm-2.3-2.305h-.03.03ZM34.576.612h-28.4v.061h28.4V.612Zm-28.4 0C2.916.612.262 3.258.262 6.511h.062C.323 3.29 2.948.673 6.176.673V.612ZM.262 6.511v28.323h.062V6.51H.26Zm0 28.323c0 3.252 2.654 5.898 5.915 5.898v-.06c-3.228 0-5.853-2.62-5.853-5.838H.26Zm5.915 5.898h28.399v-.06h-28.4v.06Zm28.399 0c3.261 0 5.914-2.646 5.914-5.898h-.06c0 3.218-2.627 5.837-5.854 5.837v.061Zm5.914-5.898V6.51h-.06v28.323h.06Zm0-28.323c0-3.253-2.653-5.899-5.914-5.899v.061c3.227 0 5.853 2.619 5.853 5.838h.061Zm-2.414 28.323a3.5 3.5 0 0 1-3.5 3.49v.061a3.56 3.56 0 0 0 3.56-3.551h-.06Zm-3.5 3.49h-28.4v.061h28.4v-.061Zm-28.4 0a3.499 3.499 0 0 1-3.499-3.49h-.061a3.56 3.56 0 0 0 3.56 3.551v-.061Zm-3.499-3.49V6.51h-.061v28.323h.061Zm0-28.323c0-1.925 1.57-3.49 3.5-3.49v-.062a3.56 3.56 0 0 0-3.561 3.552h.061Zm3.5-3.49h28.399v-.062h-28.4v.061Zm28.399 0c1.93 0 3.5 1.565 3.5 3.49h.06a3.56 3.56 0 0 0-3.56-3.552v.061Zm3.5 3.49v28.323h.06V6.51h-.06ZM31.42 29.648h-4.312v.061h4.312v-.06Zm-4.281.03v-.198h-.061v.199h.061Zm0-.198v-7.003h-.061v7.003h.061Zm0-7.003c0-.498-.037-.992-.162-1.48l-.06.015c.124.482.161.97.161 1.465h.061Zm-.162-1.48c-.261-1.012-.957-1.49-1.7-1.595-.74-.103-1.529.166-1.98.647l.046.042c.435-.466 1.203-.729 1.925-.628.72.1 1.395.563 1.65 1.55l.059-.016Zm-3.68-.948c-.448.48-.743 1.025-.755 1.7h.06c.013-.655.3-1.186.74-1.658l-.044-.042Zm-.755 1.7c-.003.155-.012.317-.012.475h.06c0-.159.01-.314.013-.474l-.061-.002Zm-.012.475-.001 7.248h.061v-7.248h-.06Zm-.001 7.248v.206h.061v-.206h-.061Zm.03.175h-4.302v.061h4.303v-.061Zm-4.273.03V16.313h-.06v13.364h.06Zm-.03-13.334h4.301v-.061h-4.301v.061Zm4.27-.03v1.791h.062v-1.792h-.061Zm.02 1.82.034.015.024-.056-.034-.015-.025.056Zm.07.006.093-.125-.05-.036-.092.124.05.037Zm.093-.126c.43-.597.922-1.123 1.575-1.48l-.03-.053c-.663.362-1.162.897-1.595 1.498l.05.035Zm1.575-1.48c.73-.397 1.518-.531 2.34-.508l.002-.06c-.83-.025-1.63.11-2.371.515l.029.054Zm2.34-.508c.891.026 1.735.227 2.494.705l.033-.052c-.771-.485-1.626-.688-2.525-.714l-.002.061Zm2.494.705c.974.613 1.568 1.51 1.917 2.587l.058-.018c-.352-1.09-.954-2-1.942-2.621l-.033.052Zm1.917 2.587c.271.841.36 1.709.361 2.589h.061c0-.884-.09-1.759-.364-2.607l-.058.018Zm.361 2.589c.002 2.539.001 5.077 0 7.616h.062c0-2.538.002-5.077 0-7.616h-.062Zm0 7.616c0 .049-.004.096-.007.155l.061.003c.003-.055.008-.107.008-.158h-.061Zm-15.77.133h-4.28v.062h4.279v-.062Zm-4.25.031V16.309h-.061v13.377h.061Zm-.03-13.347h4.279v-.061h-4.279v.061Zm4.25-.03v13.377h.06V16.309h-.06Zm-1.927-6.622c.667-.001 1.234.235 1.635.639.401.403.638.975.64 1.648h.062c-.003-.688-.245-1.276-.659-1.692-.413-.415-.997-.657-1.678-.656v.06Zm2.276 2.287c.002.666-.236 1.232-.643 1.633-.407.4-.985.636-1.665.636v.062c.695 0 1.288-.242 1.708-.655.42-.412.663-.995.66-1.676h-.06Zm-2.308 2.27c-1.324 0-2.266-.945-2.269-2.275h-.06c.002 1.364.972 2.337 2.33 2.336v-.062Zm-2.269-2.275c-.002-1.332.954-2.28 2.301-2.282v-.061c-1.38.002-2.364.977-2.362 2.343h.061Z" mask="url(#a)"/>
</svg>
